<svg width="40" height="37" viewBox="0 0 40 37" fill="none" xmlns="http://www.w3.org/2000/svg">
<path d="M40 18.053C40 8.08261 31.9174 0 21.947 0H18.053C8.08261 0 0 8.08261 0 18.053C0 28.0234 8.08261 36.106 18.053 36.106H21.947C31.9174 36.106 40 28.0234 40 18.053Z" fill="black"/>
<path fill-rule="evenodd" clip-rule="evenodd" d="M29.7875 18.2581C29.7875 17.6181 29.7239 17.0026 29.6057 16.4118H20.1875V19.9034H25.5693C25.3375 21.0317 24.633 21.9877 23.5739 22.6278V24.8926H26.8057C28.6966 23.3212 29.7875 21.0071 29.7875 18.2581Z" fill="white"/>
<path fill-rule="evenodd" clip-rule="evenodd" d="M20.1874 27.0795C22.8874 27.0795 25.151 26.2712 26.8056 24.8926L23.5737 22.6278C22.6783 23.1694 21.5328 23.4894 20.1874 23.4894C17.5828 23.4894 15.3783 21.9015 14.5919 19.768H11.251V22.1067C12.8964 25.0567 16.2783 27.0795 20.1874 27.0795Z" fill="white"/>
<path fill-rule="evenodd" clip-rule="evenodd" d="M14.5921 19.768C14.3921 19.2264 14.2784 18.6479 14.2784 18.0529C14.2784 17.458 14.3921 16.8795 14.5921 16.3379V13.9992H11.2511C10.5739 15.2178 10.1875 16.5964 10.1875 18.0529C10.1875 19.5095 10.5739 20.8881 11.2511 22.1067L14.5921 19.768Z" fill="white"/>
<path fill-rule="evenodd" clip-rule="evenodd" d="M20.1874 12.6166C21.6555 12.6166 22.9737 13.072 24.0101 13.9665L26.8783 11.3775C25.1465 9.92094 22.8828 9.02649 20.1874 9.02649C16.2783 9.02649 12.8964 11.0493 11.251 13.9993L14.5919 16.338C15.3783 14.2044 17.5828 12.6166 20.1874 12.6166Z" fill="white"/>
</svg>
