<svg width="40" height="37" viewBox="0 0 40 37" fill="none" xmlns="http://www.w3.org/2000/svg">
<rect y="0.707947" width="40" height="36.1061" rx="18.053" fill="black"/>
<path d="M20 11.3658C22.6506 11.3658 23.0121 11.3658 24.0964 11.3658C25.0602 11.3658 25.5422 11.5833 25.9036 11.6921C26.3855 11.9096 26.747 12.0183 27.1084 12.3446C27.4699 12.6708 27.7108 12.9971 27.8313 13.4321C27.9518 13.7584 28.0723 14.1934 28.1928 15.0634C28.1928 16.0422 28.1928 16.2597 28.1928 18.761C28.1928 21.2623 28.1928 21.4798 28.1928 22.4586C28.1928 23.3287 27.9518 23.7637 27.8313 24.0899C27.5904 24.5249 27.4699 24.8512 27.1084 25.1775C26.747 25.5037 26.3855 25.7212 25.9036 25.83C25.5422 25.9387 25.0602 26.0475 24.0964 26.1562C23.0121 26.1562 22.7711 26.1562 20 26.1562C17.2289 26.1562 16.988 26.1562 15.9036 26.1562C14.9398 26.1562 14.4578 25.9387 14.0964 25.83C13.6145 25.6125 13.253 25.5037 12.8916 25.1775C12.5301 24.8512 12.2892 24.5249 12.1687 24.0899C12.0482 23.7637 11.9277 23.3287 11.8072 22.4586C11.8072 21.4798 11.8072 21.2623 11.8072 18.761C11.8072 16.2597 11.8072 16.0422 11.8072 15.0634C11.8072 14.1934 12.0482 13.7584 12.1687 13.4321C12.4096 12.9971 12.5301 12.6708 12.8916 12.3446C13.253 12.0183 13.6145 11.8008 14.0964 11.6921C14.4578 11.5833 14.9398 11.4745 15.9036 11.3658C16.988 11.3658 17.3494 11.3658 20 11.3658ZM20 9.7345C17.2289 9.7345 16.988 9.7345 15.9036 9.7345C14.8193 9.7345 14.0964 9.952 13.494 10.1695C12.8916 10.387 12.2892 10.7133 11.6867 11.257C11.0843 11.8008 10.8434 12.2358 10.4819 12.8883C10.241 13.4321 10.1205 14.0846 10 15.0634C10 16.0422 10 16.3684 10 18.761C10 21.2623 10 21.4798 10 22.4586C10 23.4374 10.241 24.0899 10.4819 24.6337C10.7229 25.1775 11.0843 25.7212 11.6867 26.265C12.2892 26.8088 12.7711 27.0263 13.494 27.3525C14.0964 27.57 14.8193 27.6788 15.9036 27.7875C16.988 27.7875 17.3494 27.7875 20 27.7875C22.6506 27.7875 23.0121 27.7875 24.0964 27.7875C25.1807 27.7875 25.9036 27.57 26.506 27.3525C27.1084 27.135 27.7108 26.8088 28.3133 26.265C28.9157 25.7212 29.1566 25.2862 29.5181 24.6337C29.759 24.0899 29.8795 23.4374 30 22.4586C30 21.4798 30 21.1536 30 18.761C30 16.3684 30 16.0422 30 15.0634C30 14.0846 29.759 13.4321 29.5181 12.8883C29.2771 12.3446 28.9157 11.8008 28.3133 11.257C27.7108 10.7133 27.2289 10.4958 26.506 10.1695C25.9036 9.952 25.1807 9.84325 24.0964 9.7345C23.0121 9.7345 22.7711 9.7345 20 9.7345Z" fill="white"/>
<path d="M20 14.0846C17.1084 14.0846 14.8193 16.1509 14.8193 18.761C14.8193 21.3711 17.1084 23.4374 20 23.4374C22.8916 23.4374 25.1807 21.3711 25.1807 18.761C25.1807 16.1509 22.8916 14.0846 20 14.0846ZM20 21.8061C18.1928 21.8061 16.6265 20.5011 16.6265 18.761C16.6265 17.1297 18.0723 15.7159 20 15.7159C21.8072 15.7159 23.3735 17.021 23.3735 18.761C23.3735 20.3923 21.8072 21.8061 20 21.8061Z" fill="white"/>
<path d="M25.3012 15.0634C25.9666 15.0634 26.506 14.5765 26.506 13.9759C26.506 13.3752 25.9666 12.8883 25.3012 12.8883C24.6358 12.8883 24.0964 13.3752 24.0964 13.9759C24.0964 14.5765 24.6358 15.0634 25.3012 15.0634Z" fill="white"/>
</svg>
