<svg width="40" height="37" viewBox="0 0 40 37" fill="none" xmlns="http://www.w3.org/2000/svg">
<rect width="40" height="36.106" rx="18.053" fill="black"/>
<path d="M28 18.7249V23.7037H24.7713V19.0285C24.7713 17.8749 24.3004 17.0856 23.157 17.0856C22.2825 17.0856 21.7444 17.632 21.5426 18.1178C21.4753 18.2999 21.4081 18.5428 21.4081 18.8464V23.7037H18.1794C18.1794 23.7037 18.2466 15.8105 18.1794 15.0212H21.4081V16.2355C21.8117 15.6284 22.6188 14.7784 24.3004 14.7784C26.3856 14.7784 28 16.0534 28 18.7249ZM14.8161 10.8318C13.7399 10.8318 13 11.4997 13 12.3497C13 13.1997 13.6726 13.8676 14.7489 13.8676C15.8924 13.8676 16.565 13.1997 16.565 12.3497C16.6323 11.439 15.9596 10.8318 14.8161 10.8318ZM13.2018 23.7037H16.4305V15.0212H13.2018V23.7037Z" fill="white"/>
</svg>
