<svg width="40" height="37" viewBox="0 0 40 37" fill="none" xmlns="http://www.w3.org/2000/svg">
<rect width="40" height="36.106" rx="18.053" fill="black"/>
<path d="M30.3182 19.0172C30.3864 18.5248 30.4545 18.094 30.4545 17.6017C30.4545 12.6781 26.0227 8.6162 20.5 8.6162C19.9545 8.6162 19.4773 8.67774 18.9318 8.73928C18.0455 8.30847 17.0909 8.12384 16.1364 8.12384C12.7273 8.12384 10 10.5856 10 13.6628C10 14.5245 10.2045 15.3861 10.6818 16.1862C10.6136 16.6785 10.5455 17.1093 10.5455 17.6017C10.5455 22.5252 14.9773 26.5871 20.5 26.5871C21.0455 26.5871 21.5227 26.5256 22.0682 26.4641C22.9545 26.8333 23.9091 27.0795 24.8636 27.0795C28.2727 27.0795 31 24.6177 31 21.5405C31 20.6789 30.7273 19.8173 30.3182 19.0172ZM24.6591 20.8635C24.4545 21.2328 24.1818 21.5405 23.7727 21.7867C23.3636 22.0329 22.9545 22.2175 22.4091 22.3406C21.8636 22.4637 21.25 22.5252 20.5682 22.5252C19.1364 22.5252 17.9773 22.2175 17.1591 21.6636C16.6818 21.2943 16.2727 20.8635 16.0682 20.3096C15.7955 19.8173 16.2727 19.2018 16.9545 19.2018H17.1591C17.5682 19.2018 17.9773 19.448 18.1136 19.7557C18.25 20.0634 18.4545 20.3096 18.7273 20.4943C19.1364 20.802 19.75 20.9251 20.5 20.9251C21.1818 20.9251 21.7273 20.802 22.1364 20.6173C22.5455 20.4327 22.75 20.0634 22.75 19.6942C22.75 19.5095 22.6818 19.3865 22.6136 19.2634C22.5455 19.1403 22.3409 19.0172 22.2045 18.9556C22 18.8326 21.7955 18.771 21.4545 18.7095C21.1818 18.6479 20.8409 18.5248 20.4318 18.4633L20.0227 18.3402C19.5455 18.2171 19 18.094 18.5909 17.9709C18.1136 17.8478 17.7045 17.6632 17.3636 17.4786C17.0227 17.2939 16.75 17.0478 16.5455 16.6785C16.3409 16.3708 16.2727 15.94 16.2727 15.4476C16.2727 14.9553 16.4091 14.5245 16.6136 14.1552C16.8182 13.7859 17.1591 13.4782 17.5 13.2936C17.9091 13.0474 18.3182 12.8628 18.8636 12.8012C19.3409 12.6781 19.8864 12.6166 20.5 12.6166C21.1818 12.6166 21.7273 12.6781 22.2727 12.8012C22.8182 12.9243 23.2273 13.1089 23.6364 13.4167C24.0455 13.6628 24.3182 13.9706 24.5227 14.4014C24.8636 14.9553 24.3864 15.6938 23.6364 15.6938H23.4318C23.0227 15.6938 22.6818 15.5092 22.4773 15.2014C22.3409 15.0168 22.2045 14.8322 22 14.6475C21.6591 14.4014 21.1136 14.2783 20.5 14.2783C19.8864 14.2783 19.4091 14.4014 19.0682 14.586C18.7273 14.7706 18.5909 15.0784 18.5909 15.3861C18.5909 15.5707 18.6591 15.6938 18.7273 15.8169C18.7955 15.94 18.9318 16.0631 19.1364 16.1246C19.3409 16.1862 19.5455 16.3092 19.8182 16.3708C20.0909 16.4323 20.4318 16.4939 20.8409 16.617C21.25 16.6785 21.5909 16.8016 22 16.8631C22.3409 16.9247 22.6818 17.0478 23.0227 17.1093C23.3636 17.2324 23.6364 17.3555 23.9091 17.4786C24.1818 17.6017 24.3864 17.7863 24.5909 17.9709C24.7955 18.1556 24.9318 18.4017 25 18.6479C25.1364 18.8941 25.1364 19.2634 25.1364 19.6326C25 20.0634 24.8636 20.4943 24.6591 20.8635Z" fill="white"/>
</svg>
